<mxfile host="app.diagrams.net" modified="2021-11-26T12:54:56.455Z" agent="5.0 (Windows NT 10.0; Win64; x64) AppleWebKit/537.36 (KHTML, like Gecko) Chrome/96.0.4664.45 Safari/537.36" etag="26F1ppAwv7cCyUFOwdBN" version="15.8.6" type="github" pages="2">
  <diagram id="C5RBs43oDa-KdzZeNtuy" name="Page-1">
    <mxGraphModel dx="1303" dy="1522" grid="1" gridSize="10" guides="1" tooltips="1" connect="1" arrows="1" fold="1" page="1" pageScale="1" pageWidth="827" pageHeight="1169" background="#FFFFFF" math="0" shadow="0">
      <root>
        <mxCell id="WIyWlLk6GJQsqaUBKTNV-0" />
        <mxCell id="WIyWlLk6GJQsqaUBKTNV-1" parent="WIyWlLk6GJQsqaUBKTNV-0" />
        <mxCell id="7SfPtj6ou5hz7J-PCn-C-5" value="" style="edgeStyle=orthogonalEdgeStyle;rounded=0;orthogonalLoop=1;jettySize=auto;html=1;" parent="WIyWlLk6GJQsqaUBKTNV-1" source="7SfPtj6ou5hz7J-PCn-C-2" target="7SfPtj6ou5hz7J-PCn-C-4" edge="1">
          <mxGeometry relative="1" as="geometry" />
        </mxCell>
        <mxCell id="7SfPtj6ou5hz7J-PCn-C-2" value="数据收集" style="rounded=1;whiteSpace=wrap;html=1;shadow=0;strokeWidth=1;glass=0;fillColor=#dae8fc;strokeColor=#6c8ebf;" parent="WIyWlLk6GJQsqaUBKTNV-1" vertex="1">
          <mxGeometry x="80" y="-200" width="110" height="40" as="geometry" />
        </mxCell>
        <mxCell id="7SfPtj6ou5hz7J-PCn-C-8" value="" style="edgeStyle=orthogonalEdgeStyle;rounded=0;orthogonalLoop=1;jettySize=auto;html=1;" parent="WIyWlLk6GJQsqaUBKTNV-1" source="7SfPtj6ou5hz7J-PCn-C-4" target="7SfPtj6ou5hz7J-PCn-C-7" edge="1">
          <mxGeometry relative="1" as="geometry" />
        </mxCell>
        <mxCell id="7SfPtj6ou5hz7J-PCn-C-4" value="数据处理" style="rounded=1;whiteSpace=wrap;html=1;shadow=0;strokeWidth=1;glass=0;fillColor=#dae8fc;strokeColor=#6c8ebf;" parent="WIyWlLk6GJQsqaUBKTNV-1" vertex="1">
          <mxGeometry x="80" y="-140" width="110" height="40" as="geometry" />
        </mxCell>
        <mxCell id="7SfPtj6ou5hz7J-PCn-C-10" value="" style="edgeStyle=orthogonalEdgeStyle;rounded=0;orthogonalLoop=1;jettySize=auto;html=1;" parent="WIyWlLk6GJQsqaUBKTNV-1" source="7SfPtj6ou5hz7J-PCn-C-7" target="7SfPtj6ou5hz7J-PCn-C-9" edge="1">
          <mxGeometry relative="1" as="geometry" />
        </mxCell>
        <mxCell id="7SfPtj6ou5hz7J-PCn-C-7" value="相关性分析" style="rounded=1;whiteSpace=wrap;html=1;shadow=0;strokeWidth=1;glass=0;fillColor=#dae8fc;strokeColor=#6c8ebf;" parent="WIyWlLk6GJQsqaUBKTNV-1" vertex="1">
          <mxGeometry x="80" y="-80" width="110" height="40" as="geometry" />
        </mxCell>
        <mxCell id="7SfPtj6ou5hz7J-PCn-C-12" value="" style="edgeStyle=orthogonalEdgeStyle;rounded=0;orthogonalLoop=1;jettySize=auto;html=1;entryX=0;entryY=0.5;entryDx=0;entryDy=0;" parent="WIyWlLk6GJQsqaUBKTNV-1" source="7SfPtj6ou5hz7J-PCn-C-9" target="7SfPtj6ou5hz7J-PCn-C-11" edge="1">
          <mxGeometry relative="1" as="geometry" />
        </mxCell>
        <mxCell id="7SfPtj6ou5hz7J-PCn-C-21" style="edgeStyle=orthogonalEdgeStyle;rounded=0;orthogonalLoop=1;jettySize=auto;html=1;exitX=1;exitY=0.5;exitDx=0;exitDy=0;entryX=0;entryY=0.5;entryDx=0;entryDy=0;" parent="WIyWlLk6GJQsqaUBKTNV-1" source="7SfPtj6ou5hz7J-PCn-C-9" target="7SfPtj6ou5hz7J-PCn-C-19" edge="1">
          <mxGeometry relative="1" as="geometry" />
        </mxCell>
        <mxCell id="7SfPtj6ou5hz7J-PCn-C-22" style="edgeStyle=orthogonalEdgeStyle;rounded=0;orthogonalLoop=1;jettySize=auto;html=1;exitX=1;exitY=0.5;exitDx=0;exitDy=0;entryX=0;entryY=0.5;entryDx=0;entryDy=0;" parent="WIyWlLk6GJQsqaUBKTNV-1" source="7SfPtj6ou5hz7J-PCn-C-9" target="7SfPtj6ou5hz7J-PCn-C-17" edge="1">
          <mxGeometry relative="1" as="geometry" />
        </mxCell>
        <mxCell id="7SfPtj6ou5hz7J-PCn-C-23" style="edgeStyle=orthogonalEdgeStyle;rounded=0;orthogonalLoop=1;jettySize=auto;html=1;exitX=1;exitY=0.5;exitDx=0;exitDy=0;entryX=0;entryY=0.5;entryDx=0;entryDy=0;" parent="WIyWlLk6GJQsqaUBKTNV-1" source="7SfPtj6ou5hz7J-PCn-C-9" target="7SfPtj6ou5hz7J-PCn-C-18" edge="1">
          <mxGeometry relative="1" as="geometry" />
        </mxCell>
        <mxCell id="7SfPtj6ou5hz7J-PCn-C-25" value="" style="edgeStyle=orthogonalEdgeStyle;rounded=0;orthogonalLoop=1;jettySize=auto;html=1;exitX=0.5;exitY=1;exitDx=0;exitDy=0;entryX=0.5;entryY=0;entryDx=0;entryDy=0;" parent="WIyWlLk6GJQsqaUBKTNV-1" source="7SfPtj6ou5hz7J-PCn-C-9" target="7SfPtj6ou5hz7J-PCn-C-24" edge="1">
          <mxGeometry relative="1" as="geometry">
            <mxPoint x="60" y="100" as="targetPoint" />
          </mxGeometry>
        </mxCell>
        <mxCell id="7SfPtj6ou5hz7J-PCn-C-28" style="edgeStyle=orthogonalEdgeStyle;rounded=0;orthogonalLoop=1;jettySize=auto;html=1;exitX=0.5;exitY=1;exitDx=0;exitDy=0;entryX=0.5;entryY=0;entryDx=0;entryDy=0;" parent="WIyWlLk6GJQsqaUBKTNV-1" source="7SfPtj6ou5hz7J-PCn-C-9" target="7SfPtj6ou5hz7J-PCn-C-26" edge="1">
          <mxGeometry relative="1" as="geometry" />
        </mxCell>
        <mxCell id="7SfPtj6ou5hz7J-PCn-C-9" value="特征参数选取" style="rounded=1;whiteSpace=wrap;html=1;shadow=0;strokeWidth=1;glass=0;fillColor=#dae8fc;strokeColor=#6c8ebf;" parent="WIyWlLk6GJQsqaUBKTNV-1" vertex="1">
          <mxGeometry x="80" y="-20" width="110" height="40" as="geometry" />
        </mxCell>
        <mxCell id="7SfPtj6ou5hz7J-PCn-C-11" value="冷冻水出水温（T1）" style="rounded=1;whiteSpace=wrap;html=1;shadow=0;strokeWidth=1;glass=0;fillColor=#ffff88;strokeColor=#36393d;" parent="WIyWlLk6GJQsqaUBKTNV-1" vertex="1">
          <mxGeometry x="270" y="-90" width="120" height="30" as="geometry" />
        </mxCell>
        <mxCell id="7SfPtj6ou5hz7J-PCn-C-17" value="蒸发器小温差（T3）" style="rounded=1;whiteSpace=wrap;html=1;shadow=0;strokeWidth=1;glass=0;fillColor=#ffff88;strokeColor=#36393d;" parent="WIyWlLk6GJQsqaUBKTNV-1" vertex="1">
          <mxGeometry x="270" y="10" width="120" height="30" as="geometry" />
        </mxCell>
        <mxCell id="7SfPtj6ou5hz7J-PCn-C-18" value="液相温度1（T4）" style="rounded=1;whiteSpace=wrap;html=1;shadow=0;strokeWidth=1;glass=0;fillColor=#ffff88;strokeColor=#36393d;" parent="WIyWlLk6GJQsqaUBKTNV-1" vertex="1">
          <mxGeometry x="270" y="60" width="120" height="30" as="geometry" />
        </mxCell>
        <mxCell id="7SfPtj6ou5hz7J-PCn-C-19" value="冷却水出水温（T2）" style="rounded=1;whiteSpace=wrap;html=1;shadow=0;strokeWidth=1;glass=0;fillColor=#ffff88;strokeColor=#36393d;" parent="WIyWlLk6GJQsqaUBKTNV-1" vertex="1">
          <mxGeometry x="270" y="-40" width="120" height="30" as="geometry" />
        </mxCell>
        <mxCell id="7SfPtj6ou5hz7J-PCn-C-30" value="" style="edgeStyle=orthogonalEdgeStyle;rounded=0;orthogonalLoop=1;jettySize=auto;html=1;entryX=0.5;entryY=0;entryDx=0;entryDy=0;entryPerimeter=0;exitX=0.5;exitY=1;exitDx=0;exitDy=0;" parent="WIyWlLk6GJQsqaUBKTNV-1" source="7SfPtj6ou5hz7J-PCn-C-24" target="7SfPtj6ou5hz7J-PCn-C-33" edge="1">
          <mxGeometry relative="1" as="geometry">
            <mxPoint x="30" y="200" as="targetPoint" />
          </mxGeometry>
        </mxCell>
        <mxCell id="7SfPtj6ou5hz7J-PCn-C-24" value="训练集&lt;br&gt;（0-6999s）" style="whiteSpace=wrap;html=1;rounded=1;shadow=0;strokeWidth=1;glass=0;fillColor=#ffcccc;strokeColor=#36393d;" parent="WIyWlLk6GJQsqaUBKTNV-1" vertex="1">
          <mxGeometry y="120" width="120" height="40" as="geometry" />
        </mxCell>
        <mxCell id="7SfPtj6ou5hz7J-PCn-C-37" style="edgeStyle=orthogonalEdgeStyle;rounded=0;orthogonalLoop=1;jettySize=auto;html=1;exitX=0.75;exitY=1;exitDx=0;exitDy=0;entryX=0.5;entryY=0;entryDx=0;entryDy=0;entryPerimeter=0;" parent="WIyWlLk6GJQsqaUBKTNV-1" source="7SfPtj6ou5hz7J-PCn-C-26" target="7SfPtj6ou5hz7J-PCn-C-39" edge="1">
          <mxGeometry relative="1" as="geometry">
            <mxPoint x="240" y="260" as="targetPoint" />
          </mxGeometry>
        </mxCell>
        <mxCell id="7SfPtj6ou5hz7J-PCn-C-26" value="测试集&lt;br&gt;（7000-11385s）" style="whiteSpace=wrap;html=1;rounded=1;shadow=0;strokeWidth=1;glass=0;fillColor=#ffe6cc;strokeColor=#000000;" parent="WIyWlLk6GJQsqaUBKTNV-1" vertex="1">
          <mxGeometry x="150" y="120" width="120" height="40" as="geometry" />
        </mxCell>
        <mxCell id="7SfPtj6ou5hz7J-PCn-C-35" value="" style="edgeStyle=orthogonalEdgeStyle;rounded=0;orthogonalLoop=1;jettySize=auto;html=1;" parent="WIyWlLk6GJQsqaUBKTNV-1" source="7SfPtj6ou5hz7J-PCn-C-33" target="7SfPtj6ou5hz7J-PCn-C-34" edge="1">
          <mxGeometry relative="1" as="geometry" />
        </mxCell>
        <mxCell id="7SfPtj6ou5hz7J-PCn-C-33" value="SVR软测量模型" style="strokeWidth=2;html=1;shape=mxgraph.flowchart.database;whiteSpace=wrap;fillColor=#a20025;strokeColor=#6F0000;fontColor=#ffffff;" parent="WIyWlLk6GJQsqaUBKTNV-1" vertex="1">
          <mxGeometry y="190" width="115" height="60" as="geometry" />
        </mxCell>
        <mxCell id="7SfPtj6ou5hz7J-PCn-C-36" style="edgeStyle=orthogonalEdgeStyle;rounded=0;orthogonalLoop=1;jettySize=auto;html=1;exitX=0.5;exitY=0.88;exitDx=0;exitDy=0;exitPerimeter=0;entryX=0.25;entryY=1;entryDx=0;entryDy=0;" parent="WIyWlLk6GJQsqaUBKTNV-1" source="7SfPtj6ou5hz7J-PCn-C-34" target="7SfPtj6ou5hz7J-PCn-C-26" edge="1">
          <mxGeometry relative="1" as="geometry">
            <Array as="points">
              <mxPoint x="58" y="360" />
              <mxPoint x="180" y="360" />
            </Array>
          </mxGeometry>
        </mxCell>
        <mxCell id="7SfPtj6ou5hz7J-PCn-C-34" value="优化参数" style="strokeWidth=2;html=1;shape=mxgraph.flowchart.multi-document;whiteSpace=wrap;fillColor=#cce5ff;strokeColor=#36393d;" parent="WIyWlLk6GJQsqaUBKTNV-1" vertex="1">
          <mxGeometry x="13.5" y="280" width="88" height="60" as="geometry" />
        </mxCell>
        <mxCell id="7SfPtj6ou5hz7J-PCn-C-39" value="软测量值" style="strokeWidth=2;html=1;shape=mxgraph.flowchart.terminator;whiteSpace=wrap;fillColor=#008a00;strokeColor=#005700;fontColor=#ffffff;" parent="WIyWlLk6GJQsqaUBKTNV-1" vertex="1">
          <mxGeometry x="190" y="200" width="100" height="40" as="geometry" />
        </mxCell>
      </root>
    </mxGraphModel>
  </diagram>
  <diagram id="mur9zX07djxmMzE7mJ6X" name="第 2 页">
    <mxGraphModel dx="476" dy="274" grid="1" gridSize="10" guides="1" tooltips="1" connect="1" arrows="1" fold="1" page="1" pageScale="1" pageWidth="827" pageHeight="1169" math="1" shadow="0">
      <root>
        <mxCell id="8_TE-pk5Lcp4gYLXLLdu-0" />
        <mxCell id="8_TE-pk5Lcp4gYLXLLdu-1" parent="8_TE-pk5Lcp4gYLXLLdu-0" />
        <mxCell id="8_TE-pk5Lcp4gYLXLLdu-17" style="edgeStyle=orthogonalEdgeStyle;rounded=0;orthogonalLoop=1;jettySize=auto;html=1;exitX=1;exitY=0.5;exitDx=0;exitDy=0;" edge="1" parent="8_TE-pk5Lcp4gYLXLLdu-1" source="8_TE-pk5Lcp4gYLXLLdu-2">
          <mxGeometry relative="1" as="geometry">
            <mxPoint x="320" y="145" as="targetPoint" />
          </mxGeometry>
        </mxCell>
        <mxCell id="8_TE-pk5Lcp4gYLXLLdu-2" value="&lt;p&gt;&lt;font color=&quot;#ffffff&quot;&gt;软测量模型&lt;/font&gt;&lt;/p&gt;" style="shape=datastore;whiteSpace=wrap;html=1;align=center;fillColor=#d80073;strokeColor=#000099;fontColor=#ffffff;" vertex="1" parent="8_TE-pk5Lcp4gYLXLLdu-1">
          <mxGeometry x="200" y="80" width="80" height="130" as="geometry" />
        </mxCell>
        <mxCell id="8_TE-pk5Lcp4gYLXLLdu-8" style="edgeStyle=orthogonalEdgeStyle;rounded=0;orthogonalLoop=1;jettySize=auto;html=1;exitX=1;exitY=0.5;exitDx=0;exitDy=0;" edge="1" parent="8_TE-pk5Lcp4gYLXLLdu-1" source="8_TE-pk5Lcp4gYLXLLdu-3">
          <mxGeometry relative="1" as="geometry">
            <mxPoint x="200" y="105" as="targetPoint" />
            <Array as="points">
              <mxPoint x="180" y="105" />
            </Array>
          </mxGeometry>
        </mxCell>
        <mxCell id="8_TE-pk5Lcp4gYLXLLdu-3" value="&lt;span style=&quot;font-size: 10.5pt ; line-height: 120%&quot;&gt;辅助变量&lt;/span&gt;&lt;span style=&quot;color: rgb(51 , 51 , 51) ; font-family: &amp;#34;microsoft yahei&amp;#34; ; font-size: 16px&quot;&gt;θ&lt;/span&gt;" style="ellipse;whiteSpace=wrap;html=1;fillColor=#ffff88;strokeColor=#36393d;" vertex="1" parent="8_TE-pk5Lcp4gYLXLLdu-1">
          <mxGeometry x="60" y="90" width="100" height="30" as="geometry" />
        </mxCell>
        <mxCell id="8_TE-pk5Lcp4gYLXLLdu-13" style="edgeStyle=orthogonalEdgeStyle;rounded=0;orthogonalLoop=1;jettySize=auto;html=1;exitX=1;exitY=0.5;exitDx=0;exitDy=0;entryX=0;entryY=0.5;entryDx=0;entryDy=0;" edge="1" parent="8_TE-pk5Lcp4gYLXLLdu-1" source="8_TE-pk5Lcp4gYLXLLdu-5" target="8_TE-pk5Lcp4gYLXLLdu-2">
          <mxGeometry relative="1" as="geometry" />
        </mxCell>
        <mxCell id="8_TE-pk5Lcp4gYLXLLdu-5" value="&lt;span style=&quot;font-size: 10.5pt ; line-height: 120%&quot;&gt;控制变量&lt;/span&gt;&lt;span style=&quot;color: rgb(51 , 51 , 51) ; font-family: &amp;#34;microsoft yahei&amp;#34; ; font-size: 16px&quot;&gt;α&lt;/span&gt;" style="ellipse;whiteSpace=wrap;html=1;fillColor=#ffff88;strokeColor=#36393d;" vertex="1" parent="8_TE-pk5Lcp4gYLXLLdu-1">
          <mxGeometry x="60" y="131.25" width="100" height="27.5" as="geometry" />
        </mxCell>
        <mxCell id="8_TE-pk5Lcp4gYLXLLdu-11" style="edgeStyle=orthogonalEdgeStyle;rounded=0;orthogonalLoop=1;jettySize=auto;html=1;exitX=1;exitY=0.5;exitDx=0;exitDy=0;entryX=0;entryY=0.809;entryDx=0;entryDy=0;entryPerimeter=0;" edge="1" parent="8_TE-pk5Lcp4gYLXLLdu-1" source="8_TE-pk5Lcp4gYLXLLdu-6" target="8_TE-pk5Lcp4gYLXLLdu-2">
          <mxGeometry relative="1" as="geometry" />
        </mxCell>
        <mxCell id="8_TE-pk5Lcp4gYLXLLdu-6" value="干扰&lt;span style=&quot;color: rgb(51 , 51 , 51) ; font-family: &amp;#34;microsoft yahei&amp;#34; ; font-size: 16px&quot;&gt;β&lt;/span&gt;" style="ellipse;whiteSpace=wrap;html=1;fillColor=#ffff88;strokeColor=#36393d;" vertex="1" parent="8_TE-pk5Lcp4gYLXLLdu-1">
          <mxGeometry x="60" y="170" width="100" height="30" as="geometry" />
        </mxCell>
        <mxCell id="8_TE-pk5Lcp4gYLXLLdu-7" value="目标变量y" style="ellipse;shape=umlControl;whiteSpace=wrap;html=1;fillColor=#fff2cc;gradientColor=#ffd966;strokeColor=#FFFF33;" vertex="1" parent="8_TE-pk5Lcp4gYLXLLdu-1">
          <mxGeometry x="320" y="105" width="70" height="80" as="geometry" />
        </mxCell>
      </root>
    </mxGraphModel>
  </diagram>
</mxfile>
